<?xml version="1.0" encoding="UTF-8"?>
<svg xmlns="http://www.w3.org/2000/svg" xmlns:xlink="http://www.w3.org/1999/xlink" version="1.1" viewBox="0 0 512.4 86.5">
  <defs>
    <style>
      .cls-1 {
        fill: url(#Namnlös_övertoning_16-2);
      }

      .cls-2 {
        fill: url(#Namnlös_övertoning_16-4);
      }

      .cls-3 {
        fill: url(#Namnlös_övertoning_16-3);
      }

      .cls-4 {
        fill: url(#Namnlös_övertoning_16-8);
      }

      .cls-5 {
        fill: url(#Namnlös_övertoning_16-7);
      }

      .cls-6 {
        fill: url(#Namnlös_övertoning_16-5);
      }

      .cls-7 {
        fill: url(#Namnlös_övertoning_16-6);
      }

      .cls-8 {
        fill: url(#Namnlös_övertoning_16);
      }
    </style>
    <linearGradient id="Namnlös_övertoning_16" data-name="Namnlös övertoning 16" x1="535" y1="31.7" x2="-30.2" y2="131.7" gradientUnits="userSpaceOnUse">
      <stop offset="0" stop-color="#d9f329"/>
      <stop offset=".3" stop-color="#b4e010"/>
      <stop offset=".7" stop-color="#3d9a01"/>
      <stop offset="1" stop-color="#012f00"/>
    </linearGradient>
    <linearGradient id="Namnlös_övertoning_16-2" data-name="Namnlös övertoning 16" x1="526.1" y1="-18.8" x2="-39.2" y2="81.2" xlink:href="#Namnlös_övertoning_16"/>
    <linearGradient id="Namnlös_övertoning_16-3" data-name="Namnlös övertoning 16" x1="525.3" y1="-23.2" x2="-39.9" y2="76.9" xlink:href="#Namnlös_övertoning_16"/>
    <linearGradient id="Namnlös_övertoning_16-4" data-name="Namnlös övertoning 16" x1="530" y1="3.3" x2="-35.3" y2="103.3" xlink:href="#Namnlös_övertoning_16"/>
    <linearGradient id="Namnlös_övertoning_16-5" data-name="Namnlös övertoning 16" x1="522.7" y1="-37.6" x2="-42.5" y2="62.4" xlink:href="#Namnlös_övertoning_16"/>
    <linearGradient id="Namnlös_övertoning_16-6" data-name="Namnlös övertoning 16" x1="530.8" y1="8.2" x2="-34.4" y2="108.2" xlink:href="#Namnlös_övertoning_16"/>
    <linearGradient id="Namnlös_övertoning_16-7" data-name="Namnlös övertoning 16" x1="532.7" y1="18.8" x2="-32.5" y2="118.9" xlink:href="#Namnlös_övertoning_16"/>
    <linearGradient id="Namnlös_övertoning_16-8" data-name="Namnlös övertoning 16" x1="523.8" y1="-31.3" x2="-41.4" y2="68.7" xlink:href="#Namnlös_övertoning_16"/>
  </defs>
  <!-- Generator: Adobe Illustrator 28.6.0, SVG Export Plug-In . SVG Version: 1.2.0 Build 709)  -->
  <g>
    <g id="Lager_1">
      <g>
        <polygon class="cls-8" points="512.4 0 493.5 0 469.8 45.1 446.1 0 427.3 0 469.8 74.1 497.6 25.8 497.6 86.5 512.4 86.5 512.4 0 512.4 0 512.4 0"/>
        <polygon class="cls-1" points="238.6 25.8 238.6 71.4 253.4 42.2 253.4 0 253.4 0 253.4 0 234.5 0 210.8 45.1 187.1 0 168.2 0 168.2 0 168.2 0 168.2 86.5 183 86.5 183 25.8 210.8 74.1 238.6 25.8"/>
        <rect class="cls-3" x="142.7" y="0" width="14.8" height="86.5"/>
        <polygon class="cls-2" points="238.6 86.5 293.1 86.5 285.6 71.7 262.7 71.7 282.4 32.7 309.7 86.5 326.3 86.5 282.4 0 238.6 86.5"/>
        <polygon class="cls-6" points="87.7 86.5 33.2 86.5 40.7 71.7 63.6 71.7 43.9 32.7 16.6 86.5 0 86.5 43.9 0 87.7 86.5"/>
        <path class="cls-7" d="M350.8,52.9c11.1-3.6,18.7-14,18.7-25.7h0C369.5,12.2,357.3,0,342.3,0h-46.6l7.5,14.8h36.7c6.7,0,12.5,5.2,12.9,11.9.3,5.8-3.3,11-8.7,12.8l-11.5,3.8c-6.7,2.2-9.9,9.9-6.7,16.2.5.9,1,1.7,1.7,2.5l22,24.5h19.9l-27.7-30.6,8.9-2.9Z"/>
        <path class="cls-5" d="M427.3,54.1c0,9.7-7.9,17.6-17.6,17.6h0c-9.7,0-17.6-7.9-17.6-17.6V0h-14.8v54.1c0,17.9,14.5,32.4,32.4,32.4h0c17.9,0,32.4-14.5,32.4-32.4v-13.2l-14.8-25.8v39Z"/>
        <polygon class="cls-4" points="117.3 54 89.6 0 72.9 0 72.9 42.2 87.7 71.4 87.7 28.8 117.3 86.5 132.1 86.5 132.1 50.2 132.1 0 117.3 0 117.3 54"/>
      </g>
    </g>
  </g>
</svg>